<?xml version="1.0" encoding="UTF-8"?>
<svg width="300" height="450" viewBox="0 0 300 450" fill="none" xmlns="http://www.w3.org/2000/svg">
  <!-- 카드 배경 -->
  <rect width="300" height="450" rx="16" fill="#1A1A2E"/>
  
  <!-- 테두리 장식 -->
  <rect x="10" y="10" width="280" height="430" rx="12" stroke="#D4AF37" stroke-width="2" fill="none"/>
  
  <!-- 모서리 장식 -->
  <path d="M10 22 L10 10 L22 10" stroke="#D4AF37" stroke-width="2"/>
  <path d="M290 22 L290 10 L278 10" stroke="#D4AF37" stroke-width="2"/>
  <path d="M10 428 L10 440 L22 440" stroke="#D4AF37" stroke-width="2"/>
  <path d="M290 428 L290 440 L278 440" stroke="#D4AF37" stroke-width="2"/>
  
  <!-- 중앙 장식 패턴 -->
  <circle cx="150" cy="225" r="80" fill="#6B3FA0" opacity="0.3"/>
  <circle cx="150" cy="225" r="60" stroke="#D4AF37" stroke-width="1.5" fill="none"/>
  
  <!-- 별자리 패턴 -->
  <circle cx="120" cy="195" r="2" fill="#D4AF37"/>
  <circle cx="180" cy="255" r="2" fill="#D4AF37"/>
  <circle cx="150" cy="175" r="2" fill="#D4AF37"/>
  <circle cx="150" cy="275" r="2" fill="#D4AF37"/>
  <circle cx="110" cy="225" r="2" fill="#D4AF37"/>
  <circle cx="190" cy="225" r="2" fill="#D4AF37"/>
  <circle cx="130" cy="255" r="2" fill="#D4AF37"/>
  <circle cx="170" cy="195" r="2" fill="#D4AF37"/>
  
  <!-- 별자리 연결선 -->
  <line x1="120" y1="195" x2="150" y2="175" stroke="#D4AF37" stroke-width="0.5" opacity="0.7"/>
  <line x1="150" y1="175" x2="170" y2="195" stroke="#D4AF37" stroke-width="0.5" opacity="0.7"/>
  <line x1="170" y1="195" x2="190" y2="225" stroke="#D4AF37" stroke-width="0.5" opacity="0.7"/>
  <line x1="190" y1="225" x2="180" y2="255" stroke="#D4AF37" stroke-width="0.5" opacity="0.7"/>
  <line x1="180" y1="255" x2="150" y2="275" stroke="#D4AF37" stroke-width="0.5" opacity="0.7"/>
  <line x1="150" y1="275" x2="130" y2="255" stroke="#D4AF37" stroke-width="0.5" opacity="0.7"/>
  <line x1="130" y1="255" x2="110" y2="225" stroke="#D4AF37" stroke-width="0.5" opacity="0.7"/>
  <line x1="110" y1="225" x2="120" y2="195" stroke="#D4AF37" stroke-width="0.5" opacity="0.7"/>
  
  <!-- 달 심볼 -->
  <path d="M150 165 C135 165 120 180 120 200 C120 220 135 235 150 235 C140 235 130 220 130 200 C130 180 140 165 150 165Z" fill="#D4AF37" opacity="0.8"/>
  
  <!-- 별 심볼 -->
  <path d="M150 285 L153 275 L160 275 L155 270 L158 260 L150 265 L142 260 L145 270 L140 275 L147 275 L150 285Z" fill="#D4AF37"/>
  
  <!-- 장식 패턴 -->
  <circle cx="150" cy="50" r="15" stroke="#D4AF37" stroke-width="1" fill="none"/>
  <circle cx="150" cy="400" r="15" stroke="#D4AF37" stroke-width="1" fill="none"/>
  <circle cx="50" cy="225" r="15" stroke="#D4AF37" stroke-width="1" fill="none"/>
  <circle cx="250" cy="225" r="15" stroke="#D4AF37" stroke-width="1" fill="none"/>
  
  <!-- 반복 패턴 -->
  <rect x="30" y="30" width="240" height="390" rx="8" stroke="#D4AF37" stroke-width="0.5" stroke-dasharray="2 4" fill="none"/>
  
  <!-- 텍스트 -->
  <text x="150" y="120" font-family="serif" font-size="16" fill="#D4AF37" text-anchor="middle">달빛 연애 연구소</text>
  <text x="150" y="340" font-family="serif" font-size="12" fill="#D4AF37" text-anchor="middle">MBTI 연애 테스트</text>
</svg>
